<mxfile host="app.diagrams.net" agent="Mozilla/5.0 (Macintosh; Intel Mac OS X 10_15_7) AppleWebKit/605.1.15 (KHTML, like Gecko) Version/18.5 Safari/605.1.15" version="27.1.0">
  <diagram name="Page-1" id="Awgw3G0mDflYX-rvaYo_">
    <mxGraphModel dx="1454" dy="2013" grid="1" gridSize="10" guides="1" tooltips="1" connect="1" arrows="1" fold="1" page="1" pageScale="1" pageWidth="850" pageHeight="1100" math="0" shadow="0">
      <root>
        <mxCell id="0" />
        <mxCell id="1" parent="0" />
        <mxCell id="I580qTxfyqNyZBtyaBUz-1" value="OPERE" style="rounded=0;whiteSpace=wrap;html=1;" vertex="1" parent="1">
          <mxGeometry x="360" y="480" width="120" height="60" as="geometry" />
        </mxCell>
        <mxCell id="I580qTxfyqNyZBtyaBUz-2" value="fatto" style="shape=rhombus;perimeter=rhombusPerimeter;whiteSpace=wrap;html=1;align=center;" vertex="1" parent="1">
          <mxGeometry x="200" y="480" width="120" height="60" as="geometry" />
        </mxCell>
        <mxCell id="I580qTxfyqNyZBtyaBUz-3" value="ARTISTI" style="rounded=0;whiteSpace=wrap;html=1;" vertex="1" parent="1">
          <mxGeometry x="200" y="340" width="120" height="60" as="geometry" />
        </mxCell>
        <mxCell id="I580qTxfyqNyZBtyaBUz-4" value="restauro" style="shape=rhombus;perimeter=rhombusPerimeter;whiteSpace=wrap;html=1;align=center;" vertex="1" parent="1">
          <mxGeometry x="360" y="340" width="120" height="60" as="geometry" />
        </mxCell>
        <mxCell id="I580qTxfyqNyZBtyaBUz-5" value="RESTAURI" style="rounded=0;whiteSpace=wrap;html=1;" vertex="1" parent="1">
          <mxGeometry x="360" y="200" width="120" height="60" as="geometry" />
        </mxCell>
        <mxCell id="I580qTxfyqNyZBtyaBUz-6" value="avvenuto" style="shape=rhombus;perimeter=rhombusPerimeter;whiteSpace=wrap;html=1;align=center;" vertex="1" parent="1">
          <mxGeometry x="200" y="200" width="120" height="60" as="geometry" />
        </mxCell>
        <mxCell id="I580qTxfyqNyZBtyaBUz-7" value="LABORATORI" style="rounded=0;whiteSpace=wrap;html=1;" vertex="1" parent="1">
          <mxGeometry x="200" y="59" width="120" height="60" as="geometry" />
        </mxCell>
        <mxCell id="I580qTxfyqNyZBtyaBUz-8" value="" style="endArrow=none;html=1;rounded=0;exitX=0.5;exitY=1;exitDx=0;exitDy=0;entryX=0.5;entryY=0;entryDx=0;entryDy=0;" edge="1" parent="1" source="I580qTxfyqNyZBtyaBUz-7" target="I580qTxfyqNyZBtyaBUz-6">
          <mxGeometry width="50" height="50" relative="1" as="geometry">
            <mxPoint x="150" y="280" as="sourcePoint" />
            <mxPoint x="200" y="230" as="targetPoint" />
          </mxGeometry>
        </mxCell>
        <mxCell id="I580qTxfyqNyZBtyaBUz-9" value="" style="endArrow=none;html=1;rounded=0;" edge="1" parent="1" source="I580qTxfyqNyZBtyaBUz-6">
          <mxGeometry width="50" height="50" relative="1" as="geometry">
            <mxPoint x="310" y="280" as="sourcePoint" />
            <mxPoint x="360" y="230" as="targetPoint" />
          </mxGeometry>
        </mxCell>
        <mxCell id="I580qTxfyqNyZBtyaBUz-10" value="" style="endArrow=none;html=1;rounded=0;entryX=0.5;entryY=1;entryDx=0;entryDy=0;exitX=0.5;exitY=0;exitDx=0;exitDy=0;" edge="1" parent="1" source="I580qTxfyqNyZBtyaBUz-4" target="I580qTxfyqNyZBtyaBUz-5">
          <mxGeometry width="50" height="50" relative="1" as="geometry">
            <mxPoint x="380" y="360" as="sourcePoint" />
            <mxPoint x="430" y="310" as="targetPoint" />
          </mxGeometry>
        </mxCell>
        <mxCell id="I580qTxfyqNyZBtyaBUz-11" value="" style="endArrow=none;html=1;rounded=0;entryX=0.5;entryY=1;entryDx=0;entryDy=0;exitX=0.5;exitY=0;exitDx=0;exitDy=0;" edge="1" parent="1">
          <mxGeometry width="50" height="50" relative="1" as="geometry">
            <mxPoint x="419.76" y="480" as="sourcePoint" />
            <mxPoint x="419.76" y="400" as="targetPoint" />
          </mxGeometry>
        </mxCell>
        <mxCell id="I580qTxfyqNyZBtyaBUz-12" value="COLLABORAZIONI" style="rounded=0;whiteSpace=wrap;html=1;" vertex="1" parent="1">
          <mxGeometry x="600" y="60" width="120" height="60" as="geometry" />
        </mxCell>
        <mxCell id="I580qTxfyqNyZBtyaBUz-13" value="aiuto" style="shape=rhombus;perimeter=rhombusPerimeter;whiteSpace=wrap;html=1;align=center;" vertex="1" parent="1">
          <mxGeometry x="360" y="60" width="120" height="60" as="geometry" />
        </mxCell>
        <mxCell id="I580qTxfyqNyZBtyaBUz-14" value="" style="endArrow=none;html=1;rounded=0;entryX=0.5;entryY=1;entryDx=0;entryDy=0;" edge="1" parent="1" target="I580qTxfyqNyZBtyaBUz-13">
          <mxGeometry width="50" height="50" relative="1" as="geometry">
            <mxPoint x="420" y="200" as="sourcePoint" />
            <mxPoint x="470" y="150" as="targetPoint" />
          </mxGeometry>
        </mxCell>
        <mxCell id="I580qTxfyqNyZBtyaBUz-15" value="" style="endArrow=none;html=1;rounded=0;entryX=0;entryY=0.5;entryDx=0;entryDy=0;" edge="1" parent="1" target="I580qTxfyqNyZBtyaBUz-12">
          <mxGeometry width="50" height="50" relative="1" as="geometry">
            <mxPoint x="480" y="90" as="sourcePoint" />
            <mxPoint x="530" y="40" as="targetPoint" />
          </mxGeometry>
        </mxCell>
        <mxCell id="I580qTxfyqNyZBtyaBUz-16" value="concesso" style="shape=rhombus;perimeter=rhombusPerimeter;whiteSpace=wrap;html=1;align=center;fontStyle=1" vertex="1" parent="1">
          <mxGeometry x="840" y="60" width="120" height="60" as="geometry" />
        </mxCell>
        <mxCell id="I580qTxfyqNyZBtyaBUz-17" value="TEMPORANEE" style="rounded=0;whiteSpace=wrap;html=1;" vertex="1" parent="1">
          <mxGeometry x="840.5" y="534" width="120" height="60" as="geometry" />
        </mxCell>
        <mxCell id="I580qTxfyqNyZBtyaBUz-18" value="" style="endArrow=none;html=1;rounded=0;exitX=1;exitY=0.5;exitDx=0;exitDy=0;" edge="1" parent="1" source="I580qTxfyqNyZBtyaBUz-16">
          <mxGeometry width="50" height="50" relative="1" as="geometry">
            <mxPoint x="990" y="80" as="sourcePoint" />
            <mxPoint x="980" y="90" as="targetPoint" />
          </mxGeometry>
        </mxCell>
        <mxCell id="I580qTxfyqNyZBtyaBUz-19" value="" style="endArrow=none;html=1;rounded=0;entryX=0;entryY=0.5;entryDx=0;entryDy=0;" edge="1" parent="1">
          <mxGeometry width="50" height="50" relative="1" as="geometry">
            <mxPoint x="720" y="90.41" as="sourcePoint" />
            <mxPoint x="840" y="90.41" as="targetPoint" />
          </mxGeometry>
        </mxCell>
        <mxCell id="I580qTxfyqNyZBtyaBUz-20" value="RESPONSABILI" style="rounded=0;whiteSpace=wrap;html=1;" vertex="1" parent="1">
          <mxGeometry x="680" y="200" width="120" height="60" as="geometry" />
        </mxCell>
        <mxCell id="I580qTxfyqNyZBtyaBUz-21" value="ZONE" style="rounded=0;whiteSpace=wrap;html=1;" vertex="1" parent="1">
          <mxGeometry x="840" y="340" width="120" height="60" as="geometry" />
        </mxCell>
        <mxCell id="I580qTxfyqNyZBtyaBUz-22" value="cordinazione" style="shape=rhombus;perimeter=rhombusPerimeter;whiteSpace=wrap;html=1;align=center;" vertex="1" parent="1">
          <mxGeometry x="520" y="200" width="120" height="60" as="geometry" />
        </mxCell>
        <mxCell id="I580qTxfyqNyZBtyaBUz-23" value="" style="endArrow=none;html=1;rounded=0;exitX=1;exitY=0.5;exitDx=0;exitDy=0;entryX=0;entryY=0.5;entryDx=0;entryDy=0;" edge="1" parent="1" source="I580qTxfyqNyZBtyaBUz-5" target="I580qTxfyqNyZBtyaBUz-22">
          <mxGeometry width="50" height="50" relative="1" as="geometry">
            <mxPoint x="510" y="230" as="sourcePoint" />
            <mxPoint x="560" y="180" as="targetPoint" />
          </mxGeometry>
        </mxCell>
        <mxCell id="I580qTxfyqNyZBtyaBUz-24" value="guardato" style="shape=rhombus;perimeter=rhombusPerimeter;whiteSpace=wrap;html=1;align=center;" vertex="1" parent="1">
          <mxGeometry x="840" y="200" width="120" height="60" as="geometry" />
        </mxCell>
        <mxCell id="I580qTxfyqNyZBtyaBUz-25" value="" style="endArrow=none;html=1;rounded=0;entryX=0;entryY=0.5;entryDx=0;entryDy=0;" edge="1" parent="1" target="I580qTxfyqNyZBtyaBUz-20">
          <mxGeometry width="50" height="50" relative="1" as="geometry">
            <mxPoint x="640" y="230" as="sourcePoint" />
            <mxPoint x="690" y="180" as="targetPoint" />
          </mxGeometry>
        </mxCell>
        <mxCell id="I580qTxfyqNyZBtyaBUz-26" value="" style="endArrow=none;html=1;rounded=0;exitX=1;exitY=0.5;exitDx=0;exitDy=0;entryX=0;entryY=0.5;entryDx=0;entryDy=0;" edge="1" parent="1" source="I580qTxfyqNyZBtyaBUz-20" target="I580qTxfyqNyZBtyaBUz-24">
          <mxGeometry width="50" height="50" relative="1" as="geometry">
            <mxPoint x="880" y="300" as="sourcePoint" />
            <mxPoint x="930" y="250" as="targetPoint" />
          </mxGeometry>
        </mxCell>
        <mxCell id="I580qTxfyqNyZBtyaBUz-27" value="" style="endArrow=none;html=1;rounded=0;entryX=0.5;entryY=1;entryDx=0;entryDy=0;exitX=0.5;exitY=0;exitDx=0;exitDy=0;" edge="1" parent="1" source="I580qTxfyqNyZBtyaBUz-21" target="I580qTxfyqNyZBtyaBUz-24">
          <mxGeometry width="50" height="50" relative="1" as="geometry">
            <mxPoint x="860" y="350" as="sourcePoint" />
            <mxPoint x="910" y="300" as="targetPoint" />
          </mxGeometry>
        </mxCell>
        <mxCell id="I580qTxfyqNyZBtyaBUz-28" value="id restauro" style="text;html=1;align=center;verticalAlign=middle;resizable=0;points=[];autosize=1;strokeColor=none;fillColor=none;" vertex="1" parent="1">
          <mxGeometry x="445" y="270" width="80" height="30" as="geometry" />
        </mxCell>
        <mxCell id="I580qTxfyqNyZBtyaBUz-29" value="livello degradazione" style="text;html=1;align=center;verticalAlign=middle;resizable=0;points=[];autosize=1;strokeColor=none;fillColor=none;" vertex="1" parent="1">
          <mxGeometry x="447" y="158" width="130" height="30" as="geometry" />
        </mxCell>
        <mxCell id="I580qTxfyqNyZBtyaBUz-30" value="nome&amp;nbsp;&lt;div&gt;opera&lt;/div&gt;" style="text;html=1;align=center;verticalAlign=middle;resizable=0;points=[];autosize=1;strokeColor=none;fillColor=none;" vertex="1" parent="1">
          <mxGeometry x="360" y="420" width="60" height="40" as="geometry" />
        </mxCell>
        <mxCell id="I580qTxfyqNyZBtyaBUz-31" value="anno&lt;div&gt;&amp;nbsp;creazione&lt;/div&gt;" style="text;html=1;align=center;verticalAlign=middle;resizable=0;points=[];autosize=1;strokeColor=none;fillColor=none;" vertex="1" parent="1">
          <mxGeometry x="411" y="416.5" width="80" height="40" as="geometry" />
        </mxCell>
        <mxCell id="I580qTxfyqNyZBtyaBUz-32" value="valore&lt;div&gt;&amp;nbsp;di mercato&lt;/div&gt;" style="text;html=1;align=center;verticalAlign=middle;resizable=0;points=[];autosize=1;strokeColor=none;fillColor=none;" vertex="1" parent="1">
          <mxGeometry x="301" y="446.5" width="80" height="40" as="geometry" />
        </mxCell>
        <mxCell id="I580qTxfyqNyZBtyaBUz-33" value="messaggio" style="text;html=1;align=center;verticalAlign=middle;resizable=0;points=[];autosize=1;strokeColor=none;fillColor=none;" vertex="1" parent="1">
          <mxGeometry x="290" y="529" width="80" height="30" as="geometry" />
        </mxCell>
        <mxCell id="I580qTxfyqNyZBtyaBUz-34" value="corrente&amp;nbsp;&lt;div&gt;artistica&lt;/div&gt;" style="text;html=1;align=center;verticalAlign=middle;resizable=0;points=[];autosize=1;strokeColor=none;fillColor=none;" vertex="1" parent="1">
          <mxGeometry x="354" y="559.75" width="70" height="40" as="geometry" />
        </mxCell>
        <mxCell id="I580qTxfyqNyZBtyaBUz-35" value="livello&lt;div&gt;&amp;nbsp;attrezzatura&lt;/div&gt;" style="text;html=1;align=center;verticalAlign=middle;resizable=0;points=[];autosize=1;strokeColor=none;fillColor=none;" vertex="1" parent="1">
          <mxGeometry x="182" y="-2" width="90" height="40" as="geometry" />
        </mxCell>
        <mxCell id="I580qTxfyqNyZBtyaBUz-36" value="specializzazione" style="text;html=1;align=center;verticalAlign=middle;resizable=0;points=[];autosize=1;strokeColor=none;fillColor=none;" vertex="1" parent="1">
          <mxGeometry x="287" y="128" width="110" height="30" as="geometry" />
        </mxCell>
        <mxCell id="I580qTxfyqNyZBtyaBUz-37" value="nome&amp;nbsp;&lt;div&gt;laboratorio&lt;/div&gt;" style="text;html=1;align=center;verticalAlign=middle;resizable=0;points=[];autosize=1;strokeColor=none;fillColor=none;" vertex="1" parent="1">
          <mxGeometry x="170" y="125" width="80" height="40" as="geometry" />
        </mxCell>
        <mxCell id="I580qTxfyqNyZBtyaBUz-38" value="numero di&amp;nbsp;&lt;div&gt;restauratori&lt;/div&gt;" style="text;html=1;align=center;verticalAlign=middle;resizable=0;points=[];autosize=1;strokeColor=none;fillColor=none;" vertex="1" parent="1">
          <mxGeometry x="263" y="-3" width="80" height="40" as="geometry" />
        </mxCell>
        <mxCell id="I580qTxfyqNyZBtyaBUz-39" value="" style="endArrow=none;html=1;rounded=0;exitX=0.5;exitY=1;exitDx=0;exitDy=0;" edge="1" parent="1" source="I580qTxfyqNyZBtyaBUz-3">
          <mxGeometry width="50" height="50" relative="1" as="geometry">
            <mxPoint x="220" y="480" as="sourcePoint" />
            <mxPoint x="260" y="480" as="targetPoint" />
          </mxGeometry>
        </mxCell>
        <mxCell id="I580qTxfyqNyZBtyaBUz-40" value="" style="endArrow=none;html=1;rounded=0;exitX=1;exitY=0.5;exitDx=0;exitDy=0;" edge="1" parent="1">
          <mxGeometry width="50" height="50" relative="1" as="geometry">
            <mxPoint x="320" y="509.81" as="sourcePoint" />
            <mxPoint x="360" y="509.81" as="targetPoint" />
          </mxGeometry>
        </mxCell>
        <mxCell id="I580qTxfyqNyZBtyaBUz-41" value="piano" style="text;html=1;align=center;verticalAlign=middle;resizable=0;points=[];autosize=1;strokeColor=none;fillColor=none;" vertex="1" parent="1">
          <mxGeometry x="823" y="300" width="50" height="30" as="geometry" />
        </mxCell>
        <mxCell id="I580qTxfyqNyZBtyaBUz-42" value="nome zona" style="text;html=1;align=center;verticalAlign=middle;resizable=0;points=[];autosize=1;strokeColor=none;fillColor=none;" vertex="1" parent="1">
          <mxGeometry x="892.5" y="292.5" width="80" height="30" as="geometry" />
        </mxCell>
        <mxCell id="I580qTxfyqNyZBtyaBUz-43" value="ala" style="text;strokeColor=none;align=center;fillColor=none;html=1;verticalAlign=middle;whiteSpace=wrap;rounded=0;" vertex="1" parent="1">
          <mxGeometry x="785" y="385.5" width="60" height="30" as="geometry" />
        </mxCell>
        <mxCell id="I580qTxfyqNyZBtyaBUz-44" value="data inizio" style="text;html=1;align=center;verticalAlign=middle;resizable=0;points=[];autosize=1;strokeColor=none;fillColor=none;" vertex="1" parent="1">
          <mxGeometry x="830.5" y="615" width="80" height="30" as="geometry" />
        </mxCell>
        <mxCell id="I580qTxfyqNyZBtyaBUz-45" value="data fine" style="text;html=1;align=center;verticalAlign=middle;resizable=0;points=[];autosize=1;strokeColor=none;fillColor=none;" vertex="1" parent="1">
          <mxGeometry x="895.5" y="615" width="70" height="30" as="geometry" />
        </mxCell>
        <mxCell id="I580qTxfyqNyZBtyaBUz-46" value="pubblico" style="text;html=1;align=center;verticalAlign=middle;resizable=0;points=[];autosize=1;strokeColor=none;fillColor=none;" vertex="1" parent="1">
          <mxGeometry x="557" y="19" width="70" height="30" as="geometry" />
        </mxCell>
        <mxCell id="I580qTxfyqNyZBtyaBUz-47" value="tipo" style="text;html=1;align=center;verticalAlign=middle;resizable=0;points=[];autosize=1;strokeColor=none;fillColor=none;" vertex="1" parent="1">
          <mxGeometry x="640" y="8" width="40" height="30" as="geometry" />
        </mxCell>
        <mxCell id="I580qTxfyqNyZBtyaBUz-48" value="ente" style="text;html=1;align=center;verticalAlign=middle;resizable=0;points=[];autosize=1;strokeColor=none;fillColor=none;" vertex="1" parent="1">
          <mxGeometry x="690" y="19" width="50" height="30" as="geometry" />
        </mxCell>
        <mxCell id="I580qTxfyqNyZBtyaBUz-49" value="livello" style="text;html=1;align=center;verticalAlign=middle;resizable=0;points=[];autosize=1;strokeColor=none;fillColor=none;" vertex="1" parent="1">
          <mxGeometry x="662.5" y="159" width="50" height="30" as="geometry" />
        </mxCell>
        <mxCell id="I580qTxfyqNyZBtyaBUz-50" value="codice fiscale" style="text;html=1;align=center;verticalAlign=middle;resizable=0;points=[];autosize=1;strokeColor=none;fillColor=none;" vertex="1" parent="1">
          <mxGeometry x="760" y="160" width="100" height="30" as="geometry" />
        </mxCell>
        <mxCell id="I580qTxfyqNyZBtyaBUz-51" value="nome&lt;div&gt;mostra&lt;/div&gt;" style="text;html=1;align=center;verticalAlign=middle;resizable=0;points=[];autosize=1;strokeColor=none;fillColor=none;" vertex="1" parent="1">
          <mxGeometry x="620" y="427.5" width="60" height="40" as="geometry" />
        </mxCell>
        <mxCell id="I580qTxfyqNyZBtyaBUz-52" value="tema" style="text;html=1;align=center;verticalAlign=middle;resizable=0;points=[];autosize=1;strokeColor=none;fillColor=none;" vertex="1" parent="1">
          <mxGeometry x="730" y="436.5" width="50" height="30" as="geometry" />
        </mxCell>
        <mxCell id="I580qTxfyqNyZBtyaBUz-53" value="psudonimo" style="text;html=1;align=center;verticalAlign=middle;resizable=0;points=[];autosize=1;strokeColor=none;fillColor=none;" vertex="1" parent="1">
          <mxGeometry x="147" y="302" width="80" height="30" as="geometry" />
        </mxCell>
        <mxCell id="I580qTxfyqNyZBtyaBUz-54" value="nome" style="text;html=1;align=center;verticalAlign=middle;resizable=0;points=[];autosize=1;strokeColor=none;fillColor=none;" vertex="1" parent="1">
          <mxGeometry x="235" y="287.5" width="50" height="30" as="geometry" />
        </mxCell>
        <mxCell id="I580qTxfyqNyZBtyaBUz-55" value="cognome" style="text;html=1;align=center;verticalAlign=middle;resizable=0;points=[];autosize=1;strokeColor=none;fillColor=none;" vertex="1" parent="1">
          <mxGeometry x="295" y="297" width="70" height="30" as="geometry" />
        </mxCell>
        <mxCell id="I580qTxfyqNyZBtyaBUz-56" value="nazionalità" style="text;html=1;align=center;verticalAlign=middle;resizable=0;points=[];autosize=1;strokeColor=none;fillColor=none;" vertex="1" parent="1">
          <mxGeometry x="152.5" y="409" width="80" height="30" as="geometry" />
        </mxCell>
        <mxCell id="I580qTxfyqNyZBtyaBUz-57" value="sesso" style="text;html=1;align=center;verticalAlign=middle;resizable=0;points=[];autosize=1;strokeColor=none;fillColor=none;" vertex="1" parent="1">
          <mxGeometry x="331" y="332" width="50" height="30" as="geometry" />
        </mxCell>
        <mxCell id="I580qTxfyqNyZBtyaBUz-58" value="data di&lt;div&gt;&amp;nbsp;nascita&lt;/div&gt;" style="text;html=1;align=center;verticalAlign=middle;resizable=0;points=[];autosize=1;strokeColor=none;fillColor=none;" vertex="1" parent="1">
          <mxGeometry x="128" y="370.5" width="60" height="40" as="geometry" />
        </mxCell>
        <mxCell id="I580qTxfyqNyZBtyaBUz-59" value="data di&lt;div&gt;&amp;nbsp;morte&lt;/div&gt;" style="text;html=1;align=center;verticalAlign=middle;resizable=0;points=[];autosize=1;strokeColor=none;fillColor=none;" vertex="1" parent="1">
          <mxGeometry x="129" y="329.5" width="60" height="40" as="geometry" />
        </mxCell>
        <mxCell id="I580qTxfyqNyZBtyaBUz-60" value="" style="endArrow=none;html=1;rounded=0;entryX=0.25;entryY=0;entryDx=0;entryDy=0;" edge="1" parent="1" target="I580qTxfyqNyZBtyaBUz-1">
          <mxGeometry width="50" height="50" relative="1" as="geometry">
            <mxPoint x="390" y="460" as="sourcePoint" />
            <mxPoint x="350" y="480" as="targetPoint" />
          </mxGeometry>
        </mxCell>
        <mxCell id="I580qTxfyqNyZBtyaBUz-61" value="" style="endArrow=none;html=1;rounded=0;entryX=0.75;entryY=0;entryDx=0;entryDy=0;" edge="1" parent="1" target="I580qTxfyqNyZBtyaBUz-1">
          <mxGeometry width="50" height="50" relative="1" as="geometry">
            <mxPoint x="450" y="460" as="sourcePoint" />
            <mxPoint x="400" y="490" as="targetPoint" />
          </mxGeometry>
        </mxCell>
        <mxCell id="I580qTxfyqNyZBtyaBUz-62" value="" style="endArrow=none;html=1;rounded=0;entryX=0.25;entryY=1;entryDx=0;entryDy=0;exitX=0.5;exitY=0;exitDx=0;exitDy=0;" edge="1" parent="1" source="I580qTxfyqNyZBtyaBUz-64" target="I580qTxfyqNyZBtyaBUz-1">
          <mxGeometry width="50" height="50" relative="1" as="geometry">
            <mxPoint x="500" y="490" as="sourcePoint" />
            <mxPoint x="495.18" y="490.5" as="targetPoint" />
            <Array as="points" />
          </mxGeometry>
        </mxCell>
        <mxCell id="I580qTxfyqNyZBtyaBUz-63" value="" style="endArrow=none;html=1;rounded=0;" edge="1" parent="1">
          <mxGeometry width="50" height="50" relative="1" as="geometry">
            <mxPoint x="340" y="490" as="sourcePoint" />
            <mxPoint x="360" y="490" as="targetPoint" />
          </mxGeometry>
        </mxCell>
        <mxCell id="I580qTxfyqNyZBtyaBUz-64" value="" style="ellipse;whiteSpace=wrap;html=1;aspect=fixed;" vertex="1" parent="1">
          <mxGeometry x="385" y="556.5" width="10" height="10" as="geometry" />
        </mxCell>
        <mxCell id="I580qTxfyqNyZBtyaBUz-65" value="" style="ellipse;whiteSpace=wrap;html=1;aspect=fixed;" vertex="1" parent="1">
          <mxGeometry x="445" y="450" width="10" height="10" as="geometry" />
        </mxCell>
        <mxCell id="I580qTxfyqNyZBtyaBUz-66" value="" style="ellipse;whiteSpace=wrap;html=1;aspect=fixed;fillColor=#000000;" vertex="1" parent="1">
          <mxGeometry x="387.5" y="454.5" width="5" height="5" as="geometry" />
        </mxCell>
        <mxCell id="I580qTxfyqNyZBtyaBUz-67" value="" style="ellipse;whiteSpace=wrap;html=1;aspect=fixed;" vertex="1" parent="1">
          <mxGeometry x="330" y="484" width="10" height="10" as="geometry" />
        </mxCell>
        <mxCell id="I580qTxfyqNyZBtyaBUz-68" value="" style="ellipse;whiteSpace=wrap;html=1;aspect=fixed;" vertex="1" parent="1">
          <mxGeometry x="330" y="527" width="10" height="10" as="geometry" />
        </mxCell>
        <mxCell id="I580qTxfyqNyZBtyaBUz-69" value="" style="endArrow=none;html=1;rounded=0;exitX=0.25;exitY=0;exitDx=0;exitDy=0;" edge="1" parent="1">
          <mxGeometry width="50" height="50" relative="1" as="geometry">
            <mxPoint x="653" y="486.5" as="sourcePoint" />
            <mxPoint x="653" y="466.5" as="targetPoint" />
          </mxGeometry>
        </mxCell>
        <mxCell id="I580qTxfyqNyZBtyaBUz-70" value="" style="ellipse;whiteSpace=wrap;html=1;aspect=fixed;fillColor=#000000;" vertex="1" parent="1">
          <mxGeometry x="650.5" y="461" width="5" height="5" as="geometry" />
        </mxCell>
        <mxCell id="I580qTxfyqNyZBtyaBUz-71" value="" style="endArrow=none;html=1;rounded=0;" edge="1" parent="1">
          <mxGeometry width="50" height="50" relative="1" as="geometry">
            <mxPoint x="870.5" y="615" as="sourcePoint" />
            <mxPoint x="870.5" y="595" as="targetPoint" />
          </mxGeometry>
        </mxCell>
        <mxCell id="I580qTxfyqNyZBtyaBUz-72" value="" style="endArrow=none;html=1;rounded=0;entryX=0.75;entryY=1;entryDx=0;entryDy=0;" edge="1" parent="1" target="I580qTxfyqNyZBtyaBUz-17">
          <mxGeometry width="50" height="50" relative="1" as="geometry">
            <mxPoint x="930.3800000000001" y="615" as="sourcePoint" />
            <mxPoint x="930.3800000000001" y="595" as="targetPoint" />
          </mxGeometry>
        </mxCell>
        <mxCell id="I580qTxfyqNyZBtyaBUz-73" value="" style="ellipse;whiteSpace=wrap;html=1;aspect=fixed;" vertex="1" parent="1">
          <mxGeometry x="865.5" y="615" width="10" height="10" as="geometry" />
        </mxCell>
        <mxCell id="I580qTxfyqNyZBtyaBUz-74" value="" style="ellipse;whiteSpace=wrap;html=1;aspect=fixed;" vertex="1" parent="1">
          <mxGeometry x="925.5" y="615" width="10" height="10" as="geometry" />
        </mxCell>
        <mxCell id="I580qTxfyqNyZBtyaBUz-75" value="" style="ellipse;whiteSpace=wrap;html=1;aspect=fixed;" vertex="1" parent="1">
          <mxGeometry x="750" y="459.5" width="10" height="10" as="geometry" />
        </mxCell>
        <mxCell id="I580qTxfyqNyZBtyaBUz-76" value="" style="endArrow=none;html=1;rounded=0;exitX=0.25;exitY=0;exitDx=0;exitDy=0;" edge="1" parent="1" source="I580qTxfyqNyZBtyaBUz-21">
          <mxGeometry width="50" height="50" relative="1" as="geometry">
            <mxPoint x="870" y="350" as="sourcePoint" />
            <mxPoint x="870" y="320" as="targetPoint" />
          </mxGeometry>
        </mxCell>
        <mxCell id="I580qTxfyqNyZBtyaBUz-77" value="" style="endArrow=none;html=1;rounded=0;exitX=0.75;exitY=0;exitDx=0;exitDy=0;" edge="1" parent="1" source="I580qTxfyqNyZBtyaBUz-21">
          <mxGeometry width="50" height="50" relative="1" as="geometry">
            <mxPoint x="880" y="350" as="sourcePoint" />
            <mxPoint x="930" y="320" as="targetPoint" />
          </mxGeometry>
        </mxCell>
        <mxCell id="I580qTxfyqNyZBtyaBUz-78" value="" style="endArrow=none;html=1;rounded=0;" edge="1" parent="1">
          <mxGeometry width="50" height="50" relative="1" as="geometry">
            <mxPoint x="840" y="390" as="sourcePoint" />
            <mxPoint x="820" y="390" as="targetPoint" />
          </mxGeometry>
        </mxCell>
        <mxCell id="I580qTxfyqNyZBtyaBUz-79" value="" style="ellipse;whiteSpace=wrap;html=1;aspect=fixed;" vertex="1" parent="1">
          <mxGeometry x="810" y="385.5" width="10" height="10" as="geometry" />
        </mxCell>
        <mxCell id="I580qTxfyqNyZBtyaBUz-80" value="" style="ellipse;whiteSpace=wrap;html=1;aspect=fixed;" vertex="1" parent="1">
          <mxGeometry x="865" y="310" width="10" height="10" as="geometry" />
        </mxCell>
        <mxCell id="I580qTxfyqNyZBtyaBUz-81" value="" style="ellipse;whiteSpace=wrap;html=1;aspect=fixed;fillColor=#000000;" vertex="1" parent="1">
          <mxGeometry x="927" y="315" width="5" height="5" as="geometry" />
        </mxCell>
        <mxCell id="I580qTxfyqNyZBtyaBUz-82" value="" style="endArrow=none;html=1;rounded=0;exitX=0.75;exitY=0;exitDx=0;exitDy=0;" edge="1" parent="1" source="I580qTxfyqNyZBtyaBUz-20">
          <mxGeometry width="50" height="50" relative="1" as="geometry">
            <mxPoint x="830" y="260" as="sourcePoint" />
            <mxPoint x="770" y="180" as="targetPoint" />
          </mxGeometry>
        </mxCell>
        <mxCell id="I580qTxfyqNyZBtyaBUz-83" value="" style="endArrow=none;html=1;rounded=0;exitX=0.25;exitY=0;exitDx=0;exitDy=0;" edge="1" parent="1" source="I580qTxfyqNyZBtyaBUz-20">
          <mxGeometry width="50" height="50" relative="1" as="geometry">
            <mxPoint x="712.5" y="185" as="sourcePoint" />
            <mxPoint x="710" y="180" as="targetPoint" />
          </mxGeometry>
        </mxCell>
        <mxCell id="I580qTxfyqNyZBtyaBUz-84" value="" style="ellipse;whiteSpace=wrap;html=1;aspect=fixed;" vertex="1" parent="1">
          <mxGeometry x="704.5" y="170" width="10" height="10" as="geometry" />
        </mxCell>
        <mxCell id="I580qTxfyqNyZBtyaBUz-85" value="" style="ellipse;whiteSpace=wrap;html=1;aspect=fixed;fillColor=#000000;" vertex="1" parent="1">
          <mxGeometry x="768" y="174.5" width="5" height="5" as="geometry" />
        </mxCell>
        <mxCell id="I580qTxfyqNyZBtyaBUz-86" value="" style="endArrow=none;html=1;rounded=0;exitX=0.5;exitY=0;exitDx=0;exitDy=0;" edge="1" parent="1" source="I580qTxfyqNyZBtyaBUz-12">
          <mxGeometry width="50" height="50" relative="1" as="geometry">
            <mxPoint x="510" y="70" as="sourcePoint" />
            <mxPoint x="660" y="40" as="targetPoint" />
          </mxGeometry>
        </mxCell>
        <mxCell id="I580qTxfyqNyZBtyaBUz-87" value="" style="endArrow=none;html=1;rounded=0;exitX=0.5;exitY=0;exitDx=0;exitDy=0;" edge="1" parent="1">
          <mxGeometry width="50" height="50" relative="1" as="geometry">
            <mxPoint x="700" y="60" as="sourcePoint" />
            <mxPoint x="700" y="40" as="targetPoint" />
          </mxGeometry>
        </mxCell>
        <mxCell id="I580qTxfyqNyZBtyaBUz-88" value="" style="endArrow=none;html=1;rounded=0;exitX=0.5;exitY=0;exitDx=0;exitDy=0;" edge="1" parent="1">
          <mxGeometry width="50" height="50" relative="1" as="geometry">
            <mxPoint x="620" y="60" as="sourcePoint" />
            <mxPoint x="620" y="40" as="targetPoint" />
          </mxGeometry>
        </mxCell>
        <mxCell id="I580qTxfyqNyZBtyaBUz-89" value="" style="ellipse;whiteSpace=wrap;html=1;aspect=fixed;fillColor=#000000;" vertex="1" parent="1">
          <mxGeometry x="697.5" y="35" width="5" height="5" as="geometry" />
        </mxCell>
        <mxCell id="I580qTxfyqNyZBtyaBUz-90" value="" style="ellipse;whiteSpace=wrap;html=1;aspect=fixed;" vertex="1" parent="1">
          <mxGeometry x="654.5" y="30" width="10" height="10" as="geometry" />
        </mxCell>
        <mxCell id="I580qTxfyqNyZBtyaBUz-91" value="" style="ellipse;whiteSpace=wrap;html=1;aspect=fixed;" vertex="1" parent="1">
          <mxGeometry x="615" y="30" width="10" height="10" as="geometry" />
        </mxCell>
        <mxCell id="I580qTxfyqNyZBtyaBUz-92" value="" style="endArrow=none;html=1;rounded=0;exitX=0.75;exitY=1;exitDx=0;exitDy=0;" edge="1" parent="1" source="I580qTxfyqNyZBtyaBUz-5">
          <mxGeometry width="50" height="50" relative="1" as="geometry">
            <mxPoint x="390" y="180" as="sourcePoint" />
            <mxPoint x="450" y="280" as="targetPoint" />
          </mxGeometry>
        </mxCell>
        <mxCell id="I580qTxfyqNyZBtyaBUz-93" value="" style="endArrow=none;html=1;rounded=0;entryX=0.75;entryY=0;entryDx=0;entryDy=0;" edge="1" parent="1" target="I580qTxfyqNyZBtyaBUz-5">
          <mxGeometry width="50" height="50" relative="1" as="geometry">
            <mxPoint x="450" y="180" as="sourcePoint" />
            <mxPoint x="400" y="210" as="targetPoint" />
          </mxGeometry>
        </mxCell>
        <mxCell id="I580qTxfyqNyZBtyaBUz-94" value="" style="ellipse;whiteSpace=wrap;html=1;aspect=fixed;" vertex="1" parent="1">
          <mxGeometry x="445" y="170" width="10" height="10" as="geometry" />
        </mxCell>
        <mxCell id="I580qTxfyqNyZBtyaBUz-95" value="" style="ellipse;whiteSpace=wrap;html=1;aspect=fixed;fillColor=#000000;" vertex="1" parent="1">
          <mxGeometry x="447" y="280" width="5" height="5" as="geometry" />
        </mxCell>
        <mxCell id="I580qTxfyqNyZBtyaBUz-96" value="" style="endArrow=none;html=1;rounded=0;exitX=0.75;exitY=0;exitDx=0;exitDy=0;" edge="1" parent="1" source="I580qTxfyqNyZBtyaBUz-7">
          <mxGeometry width="50" height="50" relative="1" as="geometry">
            <mxPoint x="350" y="69" as="sourcePoint" />
            <mxPoint x="290" y="40" as="targetPoint" />
          </mxGeometry>
        </mxCell>
        <mxCell id="I580qTxfyqNyZBtyaBUz-97" value="" style="endArrow=none;html=1;rounded=0;exitX=0.25;exitY=0;exitDx=0;exitDy=0;" edge="1" parent="1" source="I580qTxfyqNyZBtyaBUz-7">
          <mxGeometry width="50" height="50" relative="1" as="geometry">
            <mxPoint x="230" y="60" as="sourcePoint" />
            <mxPoint x="230" y="41" as="targetPoint" />
          </mxGeometry>
        </mxCell>
        <mxCell id="I580qTxfyqNyZBtyaBUz-98" value="" style="endArrow=none;html=1;rounded=0;exitX=0.25;exitY=1;exitDx=0;exitDy=0;" edge="1" parent="1" source="I580qTxfyqNyZBtyaBUz-7">
          <mxGeometry width="50" height="50" relative="1" as="geometry">
            <mxPoint x="240" y="69" as="sourcePoint" />
            <mxPoint x="230" y="140" as="targetPoint" />
          </mxGeometry>
        </mxCell>
        <mxCell id="I580qTxfyqNyZBtyaBUz-99" value="" style="endArrow=none;html=1;rounded=0;exitX=0.75;exitY=1;exitDx=0;exitDy=0;" edge="1" parent="1" source="I580qTxfyqNyZBtyaBUz-7">
          <mxGeometry width="50" height="50" relative="1" as="geometry">
            <mxPoint x="306.86" y="129" as="sourcePoint" />
            <mxPoint x="290" y="140" as="targetPoint" />
          </mxGeometry>
        </mxCell>
        <mxCell id="I580qTxfyqNyZBtyaBUz-100" value="" style="ellipse;whiteSpace=wrap;html=1;aspect=fixed;" vertex="1" parent="1">
          <mxGeometry x="285" y="140" width="10" height="10" as="geometry" />
        </mxCell>
        <mxCell id="I580qTxfyqNyZBtyaBUz-101" value="" style="ellipse;whiteSpace=wrap;html=1;aspect=fixed;" vertex="1" parent="1">
          <mxGeometry x="285" y="30" width="10" height="10" as="geometry" />
        </mxCell>
        <mxCell id="I580qTxfyqNyZBtyaBUz-102" value="" style="ellipse;whiteSpace=wrap;html=1;aspect=fixed;" vertex="1" parent="1">
          <mxGeometry x="225" y="31" width="10" height="10" as="geometry" />
        </mxCell>
        <mxCell id="I580qTxfyqNyZBtyaBUz-103" value="" style="ellipse;whiteSpace=wrap;html=1;aspect=fixed;fillColor=#000000;" vertex="1" parent="1">
          <mxGeometry x="228" y="140" width="5" height="5" as="geometry" />
        </mxCell>
        <mxCell id="I580qTxfyqNyZBtyaBUz-104" value="" style="endArrow=none;html=1;rounded=0;" edge="1" parent="1">
          <mxGeometry width="50" height="50" relative="1" as="geometry">
            <mxPoint x="320" y="349.73" as="sourcePoint" />
            <mxPoint x="330" y="349.73" as="targetPoint" />
          </mxGeometry>
        </mxCell>
        <mxCell id="I580qTxfyqNyZBtyaBUz-105" value="" style="ellipse;whiteSpace=wrap;html=1;aspect=fixed;" vertex="1" parent="1">
          <mxGeometry x="330" y="344" width="10" height="10" as="geometry" />
        </mxCell>
        <mxCell id="I580qTxfyqNyZBtyaBUz-106" value="" style="endArrow=none;html=1;rounded=0;exitX=0.75;exitY=0;exitDx=0;exitDy=0;" edge="1" parent="1">
          <mxGeometry width="50" height="50" relative="1" as="geometry">
            <mxPoint x="299.0000000000001" y="340" as="sourcePoint" />
            <mxPoint x="299" y="320" as="targetPoint" />
          </mxGeometry>
        </mxCell>
        <mxCell id="I580qTxfyqNyZBtyaBUz-107" value="" style="endArrow=none;html=1;rounded=0;exitX=0.5;exitY=0;exitDx=0;exitDy=0;" edge="1" parent="1" source="I580qTxfyqNyZBtyaBUz-3">
          <mxGeometry width="50" height="50" relative="1" as="geometry">
            <mxPoint x="300" y="350" as="sourcePoint" />
            <mxPoint x="260" y="320" as="targetPoint" />
          </mxGeometry>
        </mxCell>
        <mxCell id="I580qTxfyqNyZBtyaBUz-108" value="" style="endArrow=none;html=1;rounded=0;exitX=0.25;exitY=0;exitDx=0;exitDy=0;" edge="1" parent="1">
          <mxGeometry width="50" height="50" relative="1" as="geometry">
            <mxPoint x="220" y="340" as="sourcePoint" />
            <mxPoint x="220" y="320" as="targetPoint" />
          </mxGeometry>
        </mxCell>
        <mxCell id="I580qTxfyqNyZBtyaBUz-109" value="" style="ellipse;whiteSpace=wrap;html=1;aspect=fixed;" vertex="1" parent="1">
          <mxGeometry x="294" y="310" width="10" height="10" as="geometry" />
        </mxCell>
        <mxCell id="I580qTxfyqNyZBtyaBUz-110" value="" style="ellipse;whiteSpace=wrap;html=1;aspect=fixed;" vertex="1" parent="1">
          <mxGeometry x="255" y="310" width="10" height="10" as="geometry" />
        </mxCell>
        <mxCell id="I580qTxfyqNyZBtyaBUz-111" value="" style="endArrow=none;html=1;rounded=0;entryX=0.25;entryY=1;entryDx=0;entryDy=0;" edge="1" parent="1" target="I580qTxfyqNyZBtyaBUz-3">
          <mxGeometry width="50" height="50" relative="1" as="geometry">
            <mxPoint x="230" y="420" as="sourcePoint" />
            <mxPoint x="270" y="330" as="targetPoint" />
          </mxGeometry>
        </mxCell>
        <mxCell id="I580qTxfyqNyZBtyaBUz-112" value="" style="endArrow=none;html=1;rounded=0;" edge="1" parent="1">
          <mxGeometry width="50" height="50" relative="1" as="geometry">
            <mxPoint x="190" y="348.84" as="sourcePoint" />
            <mxPoint x="200" y="348.84" as="targetPoint" />
          </mxGeometry>
        </mxCell>
        <mxCell id="I580qTxfyqNyZBtyaBUz-113" value="" style="endArrow=none;html=1;rounded=0;" edge="1" parent="1">
          <mxGeometry width="50" height="50" relative="1" as="geometry">
            <mxPoint x="190" y="390.34" as="sourcePoint" />
            <mxPoint x="200" y="390.34" as="targetPoint" />
          </mxGeometry>
        </mxCell>
        <mxCell id="I580qTxfyqNyZBtyaBUz-114" value="" style="ellipse;whiteSpace=wrap;html=1;aspect=fixed;" vertex="1" parent="1">
          <mxGeometry x="180" y="344" width="10" height="10" as="geometry" />
        </mxCell>
        <mxCell id="I580qTxfyqNyZBtyaBUz-115" value="" style="ellipse;whiteSpace=wrap;html=1;aspect=fixed;" vertex="1" parent="1">
          <mxGeometry x="180" y="385.5" width="10" height="10" as="geometry" />
        </mxCell>
        <mxCell id="I580qTxfyqNyZBtyaBUz-116" value="" style="ellipse;whiteSpace=wrap;html=1;aspect=fixed;fillColor=#000000;" vertex="1" parent="1">
          <mxGeometry x="218" y="315.5" width="5" height="5" as="geometry" />
        </mxCell>
        <mxCell id="I580qTxfyqNyZBtyaBUz-117" value="" style="ellipse;whiteSpace=wrap;html=1;aspect=fixed;" vertex="1" parent="1">
          <mxGeometry x="224.5" y="420" width="10" height="10" as="geometry" />
        </mxCell>
        <mxCell id="I580qTxfyqNyZBtyaBUz-118" value="(1,N)" style="text;html=1;align=center;verticalAlign=middle;resizable=0;points=[];autosize=1;strokeColor=none;fillColor=none;" vertex="1" parent="1">
          <mxGeometry x="217" y="456.5" width="50" height="30" as="geometry" />
        </mxCell>
        <mxCell id="I580qTxfyqNyZBtyaBUz-119" value="(1,1)" style="text;html=1;align=center;verticalAlign=middle;resizable=0;points=[];autosize=1;strokeColor=none;fillColor=none;" vertex="1" parent="1">
          <mxGeometry x="285" y="475.5" width="50" height="30" as="geometry" />
        </mxCell>
        <mxCell id="I580qTxfyqNyZBtyaBUz-120" value="(1,N)" style="text;html=1;align=center;verticalAlign=middle;resizable=0;points=[];autosize=1;strokeColor=none;fillColor=none;" vertex="1" parent="1">
          <mxGeometry x="935.5" y="59" width="50" height="30" as="geometry" />
        </mxCell>
        <mxCell id="I580qTxfyqNyZBtyaBUz-121" value="(0,N)" style="text;html=1;align=center;verticalAlign=middle;resizable=0;points=[];autosize=1;strokeColor=none;fillColor=none;" vertex="1" parent="1">
          <mxGeometry x="800" y="59" width="50" height="30" as="geometry" />
        </mxCell>
        <mxCell id="I580qTxfyqNyZBtyaBUz-122" value="(1,1)" style="text;html=1;align=center;verticalAlign=middle;resizable=0;points=[];autosize=1;strokeColor=none;fillColor=none;" vertex="1" parent="1">
          <mxGeometry x="483" y="204" width="50" height="30" as="geometry" />
        </mxCell>
        <mxCell id="I580qTxfyqNyZBtyaBUz-123" value="(1,1)" style="text;html=1;align=center;verticalAlign=middle;resizable=0;points=[];autosize=1;strokeColor=none;fillColor=none;" vertex="1" parent="1">
          <mxGeometry x="306" y="204" width="50" height="30" as="geometry" />
        </mxCell>
        <mxCell id="I580qTxfyqNyZBtyaBUz-124" value="(0,1)" style="text;html=1;align=center;verticalAlign=middle;resizable=0;points=[];autosize=1;strokeColor=none;fillColor=none;" vertex="1" parent="1">
          <mxGeometry x="374" y="109" width="50" height="30" as="geometry" />
        </mxCell>
        <mxCell id="I580qTxfyqNyZBtyaBUz-125" value="(1,1)" style="text;html=1;align=center;verticalAlign=middle;resizable=0;points=[];autosize=1;strokeColor=none;fillColor=none;" vertex="1" parent="1">
          <mxGeometry x="416" y="318" width="50" height="30" as="geometry" />
        </mxCell>
        <mxCell id="I580qTxfyqNyZBtyaBUz-126" value="(0,N)" style="text;html=1;align=center;verticalAlign=middle;resizable=0;points=[];autosize=1;strokeColor=none;fillColor=none;" vertex="1" parent="1">
          <mxGeometry x="211.5" y="178" width="50" height="30" as="geometry" />
        </mxCell>
        <mxCell id="I580qTxfyqNyZBtyaBUz-127" value="(0,N)" style="text;html=1;align=center;verticalAlign=middle;resizable=0;points=[];autosize=1;strokeColor=none;fillColor=none;" vertex="1" parent="1">
          <mxGeometry x="467" y="60" width="50" height="30" as="geometry" />
        </mxCell>
        <mxCell id="I580qTxfyqNyZBtyaBUz-128" value="(0,N)" style="text;html=1;align=center;verticalAlign=middle;resizable=0;points=[];autosize=1;strokeColor=none;fillColor=none;" vertex="1" parent="1">
          <mxGeometry x="626.5" y="200" width="50" height="30" as="geometry" />
        </mxCell>
        <mxCell id="I580qTxfyqNyZBtyaBUz-129" value="(0,N)" style="text;html=1;align=center;verticalAlign=middle;resizable=0;points=[];autosize=1;strokeColor=none;fillColor=none;" vertex="1" parent="1">
          <mxGeometry x="418" y="388.5" width="50" height="30" as="geometry" />
        </mxCell>
        <mxCell id="I580qTxfyqNyZBtyaBUz-130" value="(1,1)" style="text;html=1;align=center;verticalAlign=middle;resizable=0;points=[];autosize=1;strokeColor=none;fillColor=none;" vertex="1" parent="1">
          <mxGeometry x="750" y="344" width="50" height="30" as="geometry" />
        </mxCell>
        <mxCell id="I580qTxfyqNyZBtyaBUz-131" value="(1,1)" style="text;html=1;align=center;verticalAlign=middle;resizable=0;points=[];autosize=1;strokeColor=none;fillColor=none;" vertex="1" parent="1">
          <mxGeometry x="892.5" y="478" width="50" height="30" as="geometry" />
        </mxCell>
        <mxCell id="I580qTxfyqNyZBtyaBUz-132" value="(1,1)" style="text;html=1;align=center;verticalAlign=middle;resizable=0;points=[];autosize=1;strokeColor=none;fillColor=none;" vertex="1" parent="1">
          <mxGeometry x="853" y="249" width="50" height="30" as="geometry" />
        </mxCell>
        <mxCell id="I580qTxfyqNyZBtyaBUz-133" value="(0,1)" style="text;html=1;align=center;verticalAlign=middle;resizable=0;points=[];autosize=1;strokeColor=none;fillColor=none;" vertex="1" parent="1">
          <mxGeometry x="803" y="199" width="50" height="30" as="geometry" />
        </mxCell>
        <mxCell id="I580qTxfyqNyZBtyaBUz-134" value="divisione" style="shape=rhombus;perimeter=rhombusPerimeter;whiteSpace=wrap;html=1;align=center;" vertex="1" parent="1">
          <mxGeometry x="840" y="425" width="120" height="60" as="geometry" />
        </mxCell>
        <mxCell id="I580qTxfyqNyZBtyaBUz-135" value="" style="endArrow=none;html=1;rounded=0;exitX=0.25;exitY=0;exitDx=0;exitDy=0;" edge="1" parent="1">
          <mxGeometry width="50" height="50" relative="1" as="geometry">
            <mxPoint x="754.86" y="489.5" as="sourcePoint" />
            <mxPoint x="754.86" y="469.5" as="targetPoint" />
          </mxGeometry>
        </mxCell>
        <mxCell id="I580qTxfyqNyZBtyaBUz-136" value="(1,1)" style="text;html=1;align=center;verticalAlign=middle;resizable=0;points=[];autosize=1;strokeColor=none;fillColor=none;" vertex="1" parent="1">
          <mxGeometry x="795.5" y="680" width="50" height="30" as="geometry" />
        </mxCell>
        <mxCell id="I580qTxfyqNyZBtyaBUz-138" value="PERMANETI" style="rounded=0;whiteSpace=wrap;html=1;" vertex="1" parent="1">
          <mxGeometry x="646" y="480.5" width="120" height="60" as="geometry" />
        </mxCell>
        <mxCell id="I580qTxfyqNyZBtyaBUz-139" value="" style="endArrow=none;html=1;rounded=0;entryX=0.5;entryY=1;entryDx=0;entryDy=0;exitX=0.5;exitY=0;exitDx=0;exitDy=0;" edge="1" parent="1" source="I580qTxfyqNyZBtyaBUz-17" target="I580qTxfyqNyZBtyaBUz-134">
          <mxGeometry width="50" height="50" relative="1" as="geometry">
            <mxPoint x="763" y="573.5" as="sourcePoint" />
            <mxPoint x="900" y="483.5" as="targetPoint" />
          </mxGeometry>
        </mxCell>
        <mxCell id="I580qTxfyqNyZBtyaBUz-140" value="" style="endArrow=none;html=1;rounded=0;entryX=0.5;entryY=1;entryDx=0;entryDy=0;exitX=0.5;exitY=0;exitDx=0;exitDy=0;" edge="1" parent="1" source="I580qTxfyqNyZBtyaBUz-138" target="I580qTxfyqNyZBtyaBUz-137">
          <mxGeometry width="50" height="50" relative="1" as="geometry">
            <mxPoint x="656" y="586.5" as="sourcePoint" />
            <mxPoint x="706" y="536.5" as="targetPoint" />
          </mxGeometry>
        </mxCell>
        <mxCell id="I580qTxfyqNyZBtyaBUz-141" value="(1,1)" style="text;html=1;align=center;verticalAlign=middle;resizable=0;points=[];autosize=1;strokeColor=none;fillColor=none;" vertex="1" parent="1">
          <mxGeometry x="700" y="390" width="50" height="30" as="geometry" />
        </mxCell>
        <mxCell id="I580qTxfyqNyZBtyaBUz-142" value="" style="endArrow=none;html=1;rounded=0;exitX=1;exitY=0.5;exitDx=0;exitDy=0;" edge="1" parent="1" source="I580qTxfyqNyZBtyaBUz-17">
          <mxGeometry width="50" height="50" relative="1" as="geometry">
            <mxPoint x="980" y="560" as="sourcePoint" />
            <mxPoint x="980" y="90" as="targetPoint" />
            <Array as="points">
              <mxPoint x="980" y="564" />
            </Array>
          </mxGeometry>
        </mxCell>
        <mxCell id="I580qTxfyqNyZBtyaBUz-143" value="" style="ellipse;whiteSpace=wrap;html=1;aspect=fixed;" vertex="1" parent="1">
          <mxGeometry x="810" y="559" width="10" height="10" as="geometry" />
        </mxCell>
        <mxCell id="I580qTxfyqNyZBtyaBUz-144" value="catalogo" style="text;strokeColor=none;align=center;fillColor=none;html=1;verticalAlign=middle;whiteSpace=wrap;rounded=0;" vertex="1" parent="1">
          <mxGeometry x="780" y="559" width="60" height="30" as="geometry" />
        </mxCell>
        <mxCell id="I580qTxfyqNyZBtyaBUz-145" value="" style="endArrow=none;html=1;rounded=0;entryX=1;entryY=0.5;entryDx=0;entryDy=0;" edge="1" parent="1" target="I580qTxfyqNyZBtyaBUz-143">
          <mxGeometry width="50" height="50" relative="1" as="geometry">
            <mxPoint x="840" y="563.5" as="sourcePoint" />
            <mxPoint x="835" y="564" as="targetPoint" />
          </mxGeometry>
        </mxCell>
        <mxCell id="I580qTxfyqNyZBtyaBUz-146" value="guidata" style="shape=rhombus;perimeter=rhombusPerimeter;whiteSpace=wrap;html=1;align=center;" vertex="1" parent="1">
          <mxGeometry x="646" y="602" width="120" height="60" as="geometry" />
        </mxCell>
        <mxCell id="I580qTxfyqNyZBtyaBUz-147" value="" style="endArrow=none;html=1;rounded=0;entryX=0;entryY=0.5;entryDx=0;entryDy=0;" edge="1" parent="1" target="I580qTxfyqNyZBtyaBUz-146">
          <mxGeometry width="50" height="50" relative="1" as="geometry">
            <mxPoint x="587" y="631.5" as="sourcePoint" />
            <mxPoint x="637" y="581.5" as="targetPoint" />
          </mxGeometry>
        </mxCell>
        <mxCell id="I580qTxfyqNyZBtyaBUz-148" value="" style="endArrow=none;html=1;rounded=0;entryX=0.5;entryY=0;entryDx=0;entryDy=0;exitX=0.5;exitY=1;exitDx=0;exitDy=0;" edge="1" parent="1" source="I580qTxfyqNyZBtyaBUz-138" target="I580qTxfyqNyZBtyaBUz-146">
          <mxGeometry width="50" height="50" relative="1" as="geometry">
            <mxPoint x="532.5" y="740.5" as="sourcePoint" />
            <mxPoint x="582.5" y="690.5" as="targetPoint" />
          </mxGeometry>
        </mxCell>
        <mxCell id="I580qTxfyqNyZBtyaBUz-149" value="GUIDA" style="rounded=0;whiteSpace=wrap;html=1;" vertex="1" parent="1">
          <mxGeometry x="467" y="601.75" width="120" height="60" as="geometry" />
        </mxCell>
        <mxCell id="I580qTxfyqNyZBtyaBUz-150" value="" style="ellipse;whiteSpace=wrap;html=1;aspect=fixed;fillColor=#000000;" vertex="1" parent="1">
          <mxGeometry x="564.5" y="571.5" width="5" height="5" as="geometry" />
        </mxCell>
        <mxCell id="I580qTxfyqNyZBtyaBUz-151" value="" style="endArrow=none;html=1;rounded=0;exitX=0.5;exitY=1;exitDx=0;exitDy=0;" edge="1" parent="1" source="I580qTxfyqNyZBtyaBUz-150">
          <mxGeometry width="50" height="50" relative="1" as="geometry">
            <mxPoint x="567" y="581.5" as="sourcePoint" />
            <mxPoint x="567" y="601.5" as="targetPoint" />
          </mxGeometry>
        </mxCell>
        <mxCell id="I580qTxfyqNyZBtyaBUz-152" value="codice fiscale" style="text;html=1;align=center;verticalAlign=middle;resizable=0;points=[];autosize=1;strokeColor=none;fillColor=none;" vertex="1" parent="1">
          <mxGeometry x="559.5" y="551.5" width="100" height="30" as="geometry" />
        </mxCell>
        <mxCell id="I580qTxfyqNyZBtyaBUz-153" value="" style="ellipse;whiteSpace=wrap;html=1;aspect=fixed;" vertex="1" parent="1">
          <mxGeometry x="522" y="571.5" width="10" height="10" as="geometry" />
        </mxCell>
        <mxCell id="I580qTxfyqNyZBtyaBUz-154" value="lingua&lt;div&gt;&amp;nbsp;parlata&lt;/div&gt;" style="text;html=1;align=center;verticalAlign=middle;resizable=0;points=[];autosize=1;strokeColor=none;fillColor=none;rotation=0;" vertex="1" parent="1">
          <mxGeometry x="431.5" y="556.5" width="60" height="40" as="geometry" />
        </mxCell>
        <mxCell id="I580qTxfyqNyZBtyaBUz-155" value="disponibilità" style="text;html=1;align=center;verticalAlign=middle;resizable=0;points=[];autosize=1;strokeColor=none;fillColor=none;" vertex="1" parent="1">
          <mxGeometry x="482" y="546.5" width="90" height="30" as="geometry" />
        </mxCell>
        <mxCell id="I580qTxfyqNyZBtyaBUz-156" value="" style="ellipse;whiteSpace=wrap;html=1;aspect=fixed;" vertex="1" parent="1">
          <mxGeometry x="482" y="571.5" width="10" height="10" as="geometry" />
        </mxCell>
        <mxCell id="I580qTxfyqNyZBtyaBUz-157" value="" style="endArrow=none;html=1;rounded=0;" edge="1" parent="1">
          <mxGeometry width="50" height="50" relative="1" as="geometry">
            <mxPoint x="527" y="581.5" as="sourcePoint" />
            <mxPoint x="526.88" y="602" as="targetPoint" />
          </mxGeometry>
        </mxCell>
        <mxCell id="I580qTxfyqNyZBtyaBUz-158" value="" style="endArrow=none;html=1;rounded=0;" edge="1" parent="1">
          <mxGeometry width="50" height="50" relative="1" as="geometry">
            <mxPoint x="487.01" y="581" as="sourcePoint" />
            <mxPoint x="486.89" y="601.5" as="targetPoint" />
          </mxGeometry>
        </mxCell>
        <mxCell id="I580qTxfyqNyZBtyaBUz-159" value="(1,N)" style="text;html=1;align=center;verticalAlign=middle;resizable=0;points=[];autosize=1;strokeColor=none;fillColor=none;" vertex="1" parent="1">
          <mxGeometry x="614" y="597" width="50" height="30" as="geometry" />
        </mxCell>
        <mxCell id="I580qTxfyqNyZBtyaBUz-160" value="(0,N)" style="text;html=1;align=center;verticalAlign=middle;resizable=0;points=[];autosize=1;strokeColor=none;fillColor=none;" vertex="1" parent="1">
          <mxGeometry x="697.5" y="576.5" width="50" height="30" as="geometry" />
        </mxCell>
        <mxCell id="I580qTxfyqNyZBtyaBUz-161" value="nome&lt;div&gt;mostra&lt;/div&gt;" style="text;html=1;align=center;verticalAlign=middle;resizable=0;points=[];autosize=1;strokeColor=none;fillColor=none;" vertex="1" parent="1">
          <mxGeometry x="815" y="475.5" width="60" height="40" as="geometry" />
        </mxCell>
        <mxCell id="I580qTxfyqNyZBtyaBUz-162" value="" style="endArrow=none;html=1;rounded=0;exitX=0.25;exitY=0;exitDx=0;exitDy=0;" edge="1" parent="1">
          <mxGeometry width="50" height="50" relative="1" as="geometry">
            <mxPoint x="848" y="534.5" as="sourcePoint" />
            <mxPoint x="848" y="514.5" as="targetPoint" />
          </mxGeometry>
        </mxCell>
        <mxCell id="I580qTxfyqNyZBtyaBUz-163" value="" style="ellipse;whiteSpace=wrap;html=1;aspect=fixed;fillColor=#000000;" vertex="1" parent="1">
          <mxGeometry x="845.5" y="509" width="5" height="5" as="geometry" />
        </mxCell>
        <mxCell id="I580qTxfyqNyZBtyaBUz-164" value="tema" style="text;html=1;align=center;verticalAlign=middle;resizable=0;points=[];autosize=1;strokeColor=none;fillColor=none;" vertex="1" parent="1">
          <mxGeometry x="932" y="480.5" width="50" height="30" as="geometry" />
        </mxCell>
        <mxCell id="I580qTxfyqNyZBtyaBUz-165" value="" style="ellipse;whiteSpace=wrap;html=1;aspect=fixed;" vertex="1" parent="1">
          <mxGeometry x="945.5" y="504" width="10" height="10" as="geometry" />
        </mxCell>
        <mxCell id="I580qTxfyqNyZBtyaBUz-166" value="" style="endArrow=none;html=1;rounded=0;exitX=0.25;exitY=0;exitDx=0;exitDy=0;" edge="1" parent="1">
          <mxGeometry width="50" height="50" relative="1" as="geometry">
            <mxPoint x="950.3600000000001" y="534" as="sourcePoint" />
            <mxPoint x="950.3600000000001" y="514" as="targetPoint" />
          </mxGeometry>
        </mxCell>
        <mxCell id="I580qTxfyqNyZBtyaBUz-167" value="" style="endArrow=none;html=1;entryX=0.5;entryY=1;entryDx=0;entryDy=0;" edge="1" parent="1" source="I580qTxfyqNyZBtyaBUz-134" target="I580qTxfyqNyZBtyaBUz-21">
          <mxGeometry width="50" height="50" relative="1" as="geometry">
            <mxPoint x="600" y="560" as="sourcePoint" />
            <mxPoint x="650" y="510" as="targetPoint" />
          </mxGeometry>
        </mxCell>
        <mxCell id="I580qTxfyqNyZBtyaBUz-168" value="" style="endArrow=none;html=1;" edge="1" parent="1">
          <mxGeometry width="50" height="50" relative="1" as="geometry">
            <mxPoint x="420" y="680" as="sourcePoint" />
            <mxPoint x="420" y="540" as="targetPoint" />
          </mxGeometry>
        </mxCell>
        <mxCell id="I580qTxfyqNyZBtyaBUz-169" value="esposizione" style="shape=rhombus;perimeter=rhombusPerimeter;whiteSpace=wrap;html=1;align=center;" vertex="1" parent="1">
          <mxGeometry x="840.5" y="650" width="120" height="60" as="geometry" />
        </mxCell>
        <mxCell id="I580qTxfyqNyZBtyaBUz-170" value="" style="endArrow=none;html=1;entryX=0;entryY=0.5;entryDx=0;entryDy=0;" edge="1" parent="1" target="I580qTxfyqNyZBtyaBUz-169">
          <mxGeometry width="50" height="50" relative="1" as="geometry">
            <mxPoint x="420" y="680" as="sourcePoint" />
            <mxPoint x="900" y="890" as="targetPoint" />
          </mxGeometry>
        </mxCell>
        <mxCell id="I580qTxfyqNyZBtyaBUz-171" value="" style="endArrow=none;html=1;entryX=0.5;entryY=0;entryDx=0;entryDy=0;exitX=0.5;exitY=1;exitDx=0;exitDy=0;" edge="1" parent="1" source="I580qTxfyqNyZBtyaBUz-17" target="I580qTxfyqNyZBtyaBUz-169">
          <mxGeometry width="50" height="50" relative="1" as="geometry">
            <mxPoint x="800" y="850" as="sourcePoint" />
            <mxPoint x="850" y="800" as="targetPoint" />
          </mxGeometry>
        </mxCell>
        <mxCell id="I580qTxfyqNyZBtyaBUz-172" value="" style="endArrow=none;html=1;exitX=0;exitY=0.5;exitDx=0;exitDy=0;" edge="1" parent="1" source="I580qTxfyqNyZBtyaBUz-137">
          <mxGeometry width="50" height="50" relative="1" as="geometry">
            <mxPoint x="620" y="370" as="sourcePoint" />
            <mxPoint x="706" y="370" as="targetPoint" />
            <Array as="points" />
          </mxGeometry>
        </mxCell>
        <mxCell id="I580qTxfyqNyZBtyaBUz-173" value="esposizione" style="shape=rhombus;perimeter=rhombusPerimeter;whiteSpace=wrap;html=1;align=center;" vertex="1" parent="1">
          <mxGeometry x="505" y="480" width="120" height="60" as="geometry" />
        </mxCell>
        <mxCell id="I580qTxfyqNyZBtyaBUz-174" value="" style="endArrow=none;html=1;entryX=0;entryY=0.5;entryDx=0;entryDy=0;" edge="1" parent="1" target="I580qTxfyqNyZBtyaBUz-173">
          <mxGeometry width="50" height="50" relative="1" as="geometry">
            <mxPoint x="480" y="510" as="sourcePoint" />
            <mxPoint x="500" y="510" as="targetPoint" />
          </mxGeometry>
        </mxCell>
        <mxCell id="I580qTxfyqNyZBtyaBUz-175" value="" style="endArrow=none;html=1;exitX=0;exitY=0.5;exitDx=0;exitDy=0;entryX=1;entryY=0.5;entryDx=0;entryDy=0;" edge="1" parent="1" source="I580qTxfyqNyZBtyaBUz-138" target="I580qTxfyqNyZBtyaBUz-173">
          <mxGeometry width="50" height="50" relative="1" as="geometry">
            <mxPoint x="510" y="580" as="sourcePoint" />
            <mxPoint x="625" y="510" as="targetPoint" />
          </mxGeometry>
        </mxCell>
        <mxCell id="I580qTxfyqNyZBtyaBUz-176" value="(1,1)" style="text;html=1;align=center;verticalAlign=middle;resizable=0;points=[];autosize=1;strokeColor=none;fillColor=none;" vertex="1" parent="1">
          <mxGeometry x="480" y="475.5" width="50" height="30" as="geometry" />
        </mxCell>
        <mxCell id="I580qTxfyqNyZBtyaBUz-177" value="(1,N)" style="text;html=1;align=center;verticalAlign=middle;resizable=0;points=[];autosize=1;strokeColor=none;fillColor=none;" vertex="1" parent="1">
          <mxGeometry x="600" y="478" width="50" height="30" as="geometry" />
        </mxCell>
        <mxCell id="I580qTxfyqNyZBtyaBUz-178" value="(1,N)" style="text;html=1;align=center;verticalAlign=middle;resizable=0;points=[];autosize=1;strokeColor=none;fillColor=none;" vertex="1" parent="1">
          <mxGeometry x="922.5" y="640" width="50" height="30" as="geometry" />
        </mxCell>
        <mxCell id="I580qTxfyqNyZBtyaBUz-179" value="(1,1)" style="text;html=1;align=center;verticalAlign=middle;resizable=0;points=[];autosize=1;strokeColor=none;fillColor=none;" vertex="1" parent="1">
          <mxGeometry x="903" y="400" width="50" height="30" as="geometry" />
        </mxCell>
        <mxCell id="I580qTxfyqNyZBtyaBUz-180" value="" style="endArrow=none;html=1;rounded=0;" edge="1" parent="1">
          <mxGeometry width="50" height="50" relative="1" as="geometry">
            <mxPoint x="340" y="531.89" as="sourcePoint" />
            <mxPoint x="360" y="531.89" as="targetPoint" />
          </mxGeometry>
        </mxCell>
        <mxCell id="I580qTxfyqNyZBtyaBUz-181" value="" style="endArrow=none;html=1;exitX=0;exitY=0.5;exitDx=0;exitDy=0;" edge="1" parent="1" source="I580qTxfyqNyZBtyaBUz-21" target="I580qTxfyqNyZBtyaBUz-137">
          <mxGeometry width="50" height="50" relative="1" as="geometry">
            <mxPoint x="840" y="370" as="sourcePoint" />
            <mxPoint x="706" y="370" as="targetPoint" />
            <Array as="points" />
          </mxGeometry>
        </mxCell>
        <mxCell id="I580qTxfyqNyZBtyaBUz-137" value="divisione" style="shape=rhombus;perimeter=rhombusPerimeter;whiteSpace=wrap;html=1;align=center;" vertex="1" parent="1">
          <mxGeometry x="646" y="340" width="120" height="60" as="geometry" />
        </mxCell>
      </root>
    </mxGraphModel>
  </diagram>
</mxfile>
